<svg width="91" height="25" viewBox="0 0 91 25" fill="none" xmlns="http://www.w3.org/2000/svg">
<g clip-path="url(#clip0_1_146)">
<path d="M0.151123 14.5244L9.97533 24.3486C4.95843 23.5006 0.999151 19.5413 0.151123 14.5244Z" fill="#5E6AD2"/>
<path d="M0 11.8573L12.6425 24.4998C13.3943 24.4596 14.1278 24.3503 14.8367 24.178L0.321746 9.66309C0.149505 10.372 0.0401738 11.1054 0 11.8573Z" fill="#5E6AD2"/>
<path d="M0.950989 7.77639L16.7234 23.5489C17.2979 23.3023 17.8493 23.0122 18.3734 22.6828L1.81705 6.12646C1.48761 6.65056 1.19754 7.20193 0.950989 7.77639Z" fill="#5E6AD2"/>
<path d="M2.88562 4.67926C5.08788 2.12035 8.35038 0.5 11.9913 0.5C18.6235 0.5 24 5.87645 24 12.5087C24 16.1496 22.3797 19.4121 19.8207 21.6144L2.88562 4.67926Z" fill="#5E6AD2"/>
</g>
<g clip-path="url(#clip1_1_146)">
<path d="M36.4874 19.0002H44.8673V16.7182H39.2551V5.90927H36.4874V19.0002ZM46.6491 19.0002H49.3722V9.182H46.6491V19.0002ZM48.017 8.01865C48.8097 8.01865 49.4936 7.41779 49.4936 6.63796C49.4936 5.86452 48.8097 5.26367 48.017 5.26367C47.2308 5.26367 46.5469 5.86452 46.5469 6.63796C46.5469 7.41779 47.2308 8.01865 48.017 8.01865ZM54.2765 13.324C54.2828 12.0584 55.0371 11.3169 56.1365 11.3169C57.2296 11.3169 57.888 12.0328 57.8816 13.2346V19.0002H60.6046V12.7488C60.6046 10.4604 59.2623 9.05416 57.2168 9.05416C55.7594 9.05416 54.7047 9.77007 54.2637 10.9142H54.1486V9.182H51.5534V19.0002H54.2765V13.324ZM67.2507 19.192C69.6861 19.192 71.3161 18.0094 71.6996 16.1877L69.1875 16.0215C68.9126 16.7694 68.2031 17.1593 67.3018 17.1593C65.9403 17.1593 65.0774 16.258 65.0774 14.7942V14.7878H71.7635V14.0399C71.7635 10.7033 69.7436 9.05416 67.1484 9.05416C64.2592 9.05416 62.3864 11.106 62.3864 14.1358C62.3864 17.2488 64.2337 19.192 67.2507 19.192ZM65.0774 13.1003C65.1286 11.9817 65.9851 11.0868 67.1932 11.0868C68.3693 11.0868 69.1875 11.9306 69.2003 13.1003H65.0774ZM76.3786 19.1856C77.8295 19.1856 78.7692 18.5528 79.2486 17.6387H79.3253V19.0002H81.9077V12.378C81.9077 10.0385 79.907 9.05416 77.7848 9.05416C75.3686 9.05416 73.8409 10.1792 73.4638 11.9689L75.9822 12.1735C76.1676 11.5215 76.7493 11.0421 77.7273 11.0421C78.6669 11.0421 79.1783 11.5023 79.1847 12.3269C79.1911 12.9725 78.5135 13.0684 76.8068 13.2346C74.8636 13.4135 73.1186 14.0655 73.1186 16.258C73.1186 18.2012 74.5057 19.1856 76.3786 19.1856ZM77.1584 17.3063C76.321 17.3063 75.7202 16.9164 75.7202 16.1685C75.7202 15.4015 76.353 15.0243 77.3118 14.8901C77.9062 14.807 78.8778 14.6664 79.2038 14.449V15.491C79.2038 16.5201 78.3537 17.3063 77.1584 17.3063ZM84.0202 19.0002H86.7433V13.4455C86.7496 12.2438 87.619 11.4192 88.7184 11.4192C89.0891 11.4192 89.3896 11.5215 89.6452 11.6493L90.4634 9.39933C90.1055 9.182 89.6452 9.04137 89.1211 9.04137C88.0153 9.04137 87.1204 9.68058 86.7624 10.8951H86.6602V9.182H84.0202V19.0002Z" fill="#F4F5FF"/>
</g>
<defs>
<clipPath id="clip0_1_146">
<rect width="24" height="24" fill="white" transform="translate(0 0.5)"/>
</clipPath>
<clipPath id="clip1_1_146">
<rect width="55" height="15" fill="white" transform="translate(36 5)"/>
</clipPath>
</defs>
</svg>
